<svg xmlns="http://www.w3.org/2000/svg" viewBox="0 0 395.52 280" height="280" width="395.52">
<g transform="matrix(1,0,0,1,136.2346003305562,74.00336708925556)">
<svg viewBox="0 0 123.05079933888759 131.99326582148888" height="131.99326582148888" width="123.05079933888759">
<g>
<svg xmlns="http://www.w3.org/2000/svg" xmlns:xlink="http://www.w3.org/1999/xlink" version="1.0" x="0" y="0" viewBox="5.190999984741211 1.9352742433547974 89.61700439453125 96.1297378540039" enable-background="new 0 0 100 100" xml:space="preserve" height="131.99326582148888" width="123.05079933888759" class="icon-o-0" data-fill-palette-color="accent" id="o-0">
<path d="M19.191 79.535c-1.104 0-2 0.896-2 2v8.406c0 1.104 0.896 2 2 2s2-0.896 2-2v-8.406C21.191 80.431 20.296 79.535 19.191 79.535z" fill="#001f3f" data-fill-palette-color="accent"/>
<path d="M19.191 57.428c-1.104 0-2 0.896-2 2v8.406c0 1.104 0.896 2 2 2s2-0.896 2-2v-8.406C21.191 58.323 20.296 57.428 19.191 57.428z" fill="#001f3f" data-fill-palette-color="accent"/>
<path d="M34.631 78.503h-4.439c-1.104 0-2 0.896-2 2v9.438c0 1.104 0.896 2 2 2s2-0.896 2-2v-7.438h2.439c1.104 0 2-0.896 2-2S35.735 78.503 34.631 78.503z" fill="#001f3f" data-fill-palette-color="accent"/>
<path d="M30.191 70.351c1.104 0 2-0.896 2-2v-7.439h0.439c1.104 0 2-0.896 2-2s-0.896-2-2-2h-2.439c-1.104 0-2 0.896-2 2v9.439C28.191 69.455 29.087 70.351 30.191 70.351z" fill="#001f3f" data-fill-palette-color="accent"/>
<path d="M34.631 36.191h-4.439c-1.104 0-2 0.896-2 2v9.439c0 1.104 0.896 2 2 2s2-0.896 2-2v-7.439h2.439c1.104 0 2-0.896 2-2S35.735 36.191 34.631 36.191z" fill="#001f3f" data-fill-palette-color="accent"/>
<path d="M39.631 17.406h-9.439c-1.104 0-2 0.896-2 2v9.439c0 1.104 0.896 2 2 2s2-0.896 2-2v-7.439h7.439c1.104 0 2-0.896 2-2S40.735 17.406 39.631 17.406z" fill="#001f3f" data-fill-palette-color="accent"/>
<path d="M53.403 42.219c4.549-1.904 5.762-2.612 5.885-2.687 0.593-0.358 0.958-0.998 0.966-1.691l0.046-4.374c0.007-0.627-0.222-1.172-0.719-1.556-0.012-0.01-1.141-1.069-1.535-4.145-0.074-0.581-0.398-1.1-0.889-1.42-0.298-0.195-0.64-0.305-0.987-0.323-0.155-0.214-0.323-0.554-0.352-0.74-0.078-1.097-1.027-1.931-2.124-1.855-1.102 0.071-1.938 1.022-1.867 2.125 0.078 1.204 0.87 2.981 2.187 3.903 0.096 0.067 0.194 0.129 0.294 0.186 0.492 2.348 1.342 3.783 1.983 4.586l-0.024 2.361c-0.791 0.378-2.155 0.997-4.4 1.938-4.596 1.901-8.226 3.403-9.966 6.118-0.444 0.69-1.626 2.525 4.632 51.673 0.129 1.01 0.99 1.747 1.981 1.747 0.085 0 0.17-0.005 0.256-0.016 1.096-0.14 1.87-1.142 1.731-2.237-2.193-17.226-5.451-45.385-5.067-49.242C46.632 45.021 49.638 43.776 53.403 42.219z" fill="#001f3f" data-fill-palette-color="accent"/>
<path d="M92.809 60.891h-2.996c-0.526-7.525-1.269-14.744-2.23-16.242-1.425-2.225-4.722-3.499-8.54-4.975-0.947-0.366-1.927-0.744-2.896-1.145-2.251-0.942-3.616-1.563-4.405-1.94l-0.023-2.362c0.641-0.802 1.489-2.237 1.983-4.584 0.107-0.062 0.214-0.129 0.317-0.202 1.162-0.825 2.092-2.508 2.163-3.915 0.057-1.104-0.792-2.056-1.895-2.111-1.11-0.048-2.042 0.781-2.098 1.884-0.025 0.181-0.192 0.515-0.347 0.726-0.349 0.018-0.69 0.127-0.989 0.322-0.489 0.32-0.814 0.839-0.89 1.419-0.391 3.023-1.486 4.1-1.478 4.1 0 0 0 0 0.001 0-0.496 0.383-0.783 0.976-0.777 1.602l0.043 4.374c0.007 0.693 0.372 1.333 0.965 1.691 0.123 0.075 1.335 0.783 5.892 2.69 1.007 0.417 2.015 0.807 2.99 1.184 2.716 1.049 5.787 2.235 6.576 3.345 0.535 1.352 1.236 8.491 1.749 16.027-0.003 0.038-0.012 0.074-0.012 0.113 0 0.147 0.019 0.289 0.048 0.428 0.081 1.208 0.156 2.422 0.226 3.622l-15.6 16.588c-0.092 0.098-0.171 0.202-0.239 0.312h-9.267V64.891h11.142c1.104 0 2-0.896 2-2s-0.896-2-2-2H59.081c-1.104 0-2 0.896-2 2V85.84c0 1.104 0.896 2 2 2h21.69v8.225c0 1.104 0.896 2 2 2s2-0.896 2-2V87.84h8.037c1.104 0 2-0.896 2-2V62.891C94.809 61.786 93.913 60.891 92.809 60.891zM90.809 83.84H75.785l13.903-14.784c0.375-0.398 0.57-0.934 0.54-1.48-0.049-0.878-0.101-1.778-0.156-2.685h0.736V83.84z" fill="#001f3f" data-fill-palette-color="accent"/>
<path d="M60.906 46.212v8.575c0 1.104 0.896 2 2 2s2-0.896 2-2v-8.575c0-1.104-0.896-2-2-2S60.906 45.107 60.906 46.212z" fill="#001f3f" data-fill-palette-color="accent"/>
<path d="M50.978 14.212l-0.04 0.396c-0.12 1.16-0.284 2.749 0.02 5.14 0.14 1.097 1.149 1.865 2.237 1.731 1.096-0.14 1.87-1.142 1.731-2.237-0.246-1.932-0.12-3.148-0.009-4.222l0.042-0.424c0.244-2.499 2.184-5.057 5.268-6.244l-1.001 3.411c-0.312 1.061 0.296 2.172 1.355 2.482 0.188 0.056 0.378 0.082 0.564 0.082 0.865 0 1.662-0.566 1.918-1.438l1.525-5.2c4.915 0.252 8.146 3.632 8.471 7 0.08 0.839 0.2 2.084 0.158 3.52H59.081c-1.104 0-2 0.896-2 2s0.896 2 2 2h15.987c1.007 0 1.856-0.749 1.984-1.747 0.33-2.596 0.107-4.911-0.021-6.251-0.463-4.809-4.811-9.763-11.438-10.456-0.072-0.794-0.614-1.501-1.425-1.738-1.062-0.312-2.171 0.297-2.482 1.355L61.54 3.874c-2.753 0.458-5.071 1.662-6.833 3.271-0.062-0.006-0.121-0.019-0.184-0.019H19.191c-1.104 0-2 0.896-2 2v21.407h-10c-1.104 0-2 0.896-2 2v57.408c0 1.104 0.896 2 2 2s2-0.896 2-2V34.533h8v13.098c0 1.104 0.896 2 2 2s2-0.896 2-2V33.224c0-0.118-0.015-0.232-0.035-0.345 0.021-0.113 0.035-0.228 0.035-0.346V11.126h30.621C51.367 12.133 51.078 13.175 50.978 14.212z" fill="#001f3f" data-fill-palette-color="accent"/>
</svg>
</g>
</svg>
</g>
</svg>